<?xml version="1.0" encoding="UTF-8" standalone="no"?>
<!DOCTYPE svg PUBLIC "-//W3C//DTD SVG 1.1//EN"
 "http://www.w3.org/Graphics/SVG/1.1/DTD/svg11.dtd">
<!-- Generated by graphviz version 2.43.0 (0)
 -->
<!-- Title: snakemake_dag Pages: 1 -->
<svg width="108pt" height="332pt"
 viewBox="0.00 0.00 108.00 332.00" xmlns="http://www.w3.org/2000/svg" xmlns:xlink="http://www.w3.org/1999/xlink">
<g id="graph0" class="graph" transform="scale(1 1) rotate(0) translate(4 328)">
<title>snakemake_dag</title>
<polygon fill="white" stroke="transparent" points="-4,4 -4,-328 104,-328 104,4 -4,4"/>
<!-- 0 -->
<g id="node1" class="node">
<title>0</title>
<path fill="none" stroke="#afd856" stroke-width="2" d="M88,-36C88,-36 12,-36 12,-36 6,-36 0,-30 0,-24 0,-24 0,-12 0,-12 0,-6 6,0 12,0 12,0 88,0 88,0 94,0 100,-6 100,-12 100,-12 100,-24 100,-24 100,-30 94,-36 88,-36"/>
<text text-anchor="middle" x="50" y="-15.5" font-family="sans" font-size="10.00">add_to_database</text>
</g>
<!-- 1 -->
<g id="node2" class="node">
<title>1</title>
<path fill="none" stroke="#d8ac56" stroke-width="2" d="M68,-108C68,-108 32,-108 32,-108 26,-108 20,-102 20,-96 20,-96 20,-84 20,-84 20,-78 26,-72 32,-72 32,-72 68,-72 68,-72 74,-72 80,-78 80,-84 80,-84 80,-96 80,-96 80,-102 74,-108 68,-108"/>
<text text-anchor="middle" x="50" y="-87.5" font-family="sans" font-size="10.00">annotate</text>
</g>
<!-- 1&#45;&gt;0 -->
<g id="edge1" class="edge">
<title>1&#45;&gt;0</title>
<path fill="none" stroke="grey" stroke-width="2" d="M50,-71.7C50,-63.98 50,-54.71 50,-46.11"/>
<polygon fill="grey" stroke="grey" stroke-width="2" points="53.5,-46.1 50,-36.1 46.5,-46.1 53.5,-46.1"/>
</g>
<!-- 2 -->
<g id="node3" class="node">
<title>2</title>
<path fill="none" stroke="#56d8a9" stroke-width="2" d="M65,-180C65,-180 35,-180 35,-180 29,-180 23,-174 23,-168 23,-168 23,-156 23,-156 23,-150 29,-144 35,-144 35,-144 65,-144 65,-144 71,-144 77,-150 77,-156 77,-156 77,-168 77,-168 77,-174 71,-180 65,-180"/>
<text text-anchor="middle" x="50" y="-159.5" font-family="sans" font-size="10.00">filter</text>
</g>
<!-- 2&#45;&gt;1 -->
<g id="edge2" class="edge">
<title>2&#45;&gt;1</title>
<path fill="none" stroke="grey" stroke-width="2" d="M50,-143.7C50,-135.98 50,-126.71 50,-118.11"/>
<polygon fill="grey" stroke="grey" stroke-width="2" points="53.5,-118.1 50,-108.1 46.5,-118.1 53.5,-118.1"/>
</g>
<!-- 3 -->
<g id="node4" class="node">
<title>3</title>
<path fill="none" stroke="#59d856" stroke-width="2" d="M65,-252C65,-252 35,-252 35,-252 29,-252 23,-246 23,-240 23,-240 23,-228 23,-228 23,-222 29,-216 35,-216 35,-216 65,-216 65,-216 71,-216 77,-222 77,-228 77,-228 77,-240 77,-240 77,-246 71,-252 65,-252"/>
<text text-anchor="middle" x="50" y="-231.5" font-family="sans" font-size="10.00">convert</text>
</g>
<!-- 3&#45;&gt;2 -->
<g id="edge3" class="edge">
<title>3&#45;&gt;2</title>
<path fill="none" stroke="grey" stroke-width="2" d="M50,-215.7C50,-207.98 50,-198.71 50,-190.11"/>
<polygon fill="grey" stroke="grey" stroke-width="2" points="53.5,-190.1 50,-180.1 46.5,-190.1 53.5,-190.1"/>
</g>
<!-- 4 -->
<g id="node5" class="node">
<title>4</title>
<path fill="none" stroke="#d85656" stroke-width="2" d="M83,-324C83,-324 17,-324 17,-324 11,-324 5,-318 5,-312 5,-312 5,-300 5,-300 5,-294 11,-288 17,-288 17,-288 83,-288 83,-288 89,-288 95,-294 95,-300 95,-300 95,-312 95,-312 95,-318 89,-324 83,-324"/>
<text text-anchor="middle" x="50" y="-303.5" font-family="sans" font-size="10.00">extract_header</text>
</g>
<!-- 4&#45;&gt;3 -->
<g id="edge4" class="edge">
<title>4&#45;&gt;3</title>
<path fill="none" stroke="grey" stroke-width="2" d="M50,-287.7C50,-279.98 50,-270.71 50,-262.11"/>
<polygon fill="grey" stroke="grey" stroke-width="2" points="53.5,-262.1 50,-252.1 46.5,-262.1 53.5,-262.1"/>
</g>
</g>
</svg>
